PathFileType	4	(X/Y/Z)	./resultDataOpenSim/trcMotMarkerGrf/sub06/qtm-01-07.trc
DataRate	CameraRate	NumFrames	NumMarkers	Units	OrigDataRate	OrigDataStartFrame	OrigNumFrames
250.000000	250.000000	14	24	m	250.000000	1	489
Frame#	Time	L.Toe.Tip			R.Toe.Tip			L.Ankle.Lat			R.Ankle.Lat			L.Ankle.Med			R.Ankle.Med			L.Heel			R.Heel			L.Knee.Lat			R.Knee.Lat			L.Knee.Med			R.Knee.Med			L.Thigh.Upper			R.Thigh.Upper			L.ASIS			R.ASIS			V.Sacral			L.Acromium			R.Acromium			C7			L.Elbow			R.Elbow			L.Wrist.Lat			R.Wrist.Lat
		X1	Y1	Z1	X2	Y2	Z2	X3	Y3	Z3	X4	Y4	Z4	X5	Y5	Z5	X6	Y6	Z6	X7	Y7	Z7	X8	Y8	Z8	X9	Y9	Z9	X10	Y10	Z10	X11	Y11	Z11	X12	Y12	Z12	X13	Y13	Z13	X14	Y14	Z14	X15	Y15	Z15	X16	Y16	Z16	X17	Y17	Z17	X18	Y18	Z18	X19	Y19	Z19	X20	Y20	Z20	X21	Y21	Z21	X22	Y22	Z22	X23	Y23	Z23	X24	Y24	Z24

1	0	-1.5606138	0.032711791	-0.078271652	-1.0542676	0.088686802	0.094741806	-1.6833438	0.074624433	-0.092955319	-1.1837818	0.077761382	0.10828447	-1.6712622	0.091929771	-0.011421918	-1.1704029	0.1054937	0.023641697	NaN	NaN	NaN	-1.2267789	0.039559327	0.036212585	-1.5420336	0.4234517	-0.12041005	-1.2466966	0.46251548	0.12212941	-1.5508428	0.42652922	0.00015856091	-1.2660921	0.44180475	-0.0064155213	-1.4507395	0.80319498	-0.19053084	-1.4341696	0.79027764	0.15710904	-1.3673357	0.83999857	-0.14762103	-1.3462206	0.84022733	0.09434191	-1.5374579	0.9243778	-0.0047861545	-1.3813478	1.3256572	-0.20174084	-1.3900299	1.3170507	0.15964492	-1.4605594	1.36099	-0.023123096	-1.4065897	1.0020983	-0.2695003	-1.515459	1.027288	0.20862261	-1.1904573	0.87335709	-0.24129404	-1.4209491	0.80414961	0.23713767
2	0.004	-1.5604748	0.032653867	-0.07834183	-1.0394427	0.091873601	0.09483639	-1.6832149	0.075017751	-0.092912746	-1.16874	0.078043181	0.1080741	-1.6709557	0.092304881	-0.011374011	-1.1558052	0.10625882	0.023528214	NaN	NaN	NaN	-1.2108359	0.039135203	0.035979541	-1.5398643	0.42294255	-0.12041448	-1.2401885	0.46100135	0.12162744	-1.5478479	0.42587819	-8.0472088e-05	-1.2587677	0.44020733	-0.0073935882	-1.4459368	0.80121806	-0.19038718	-1.4267538	0.78839686	0.15765196	-1.3622964	0.8384405	-0.14793462	-1.3397206	0.8386287	0.094130138	-1.5304533	0.92322645	-0.0020935019	-1.3756714	1.3240249	-0.20162586	-1.3843276	1.3152071	0.1599388	-1.4548664	1.3595209	-0.022961787	-1.3988165	1.0003577	-0.26920053	-1.5106545	1.0257736	0.20842981	-1.1825395	0.87309098	-0.24030395	-1.4177662	0.802295	0.23761869
3	0.008	-1.5603694	0.032595033	-0.078360614	-1.0248435	0.095126656	0.094952612	-1.6830392	0.07540835	-0.092861512	-1.153902	0.078395697	0.1078352	-1.6714291	0.092472368	-0.011023626	-1.1413777	0.10706829	0.023372479	NaN	NaN	NaN	-1.1950614	0.038755717	0.035763829	-1.537594	0.42238227	-0.12042495	-1.2337279	0.45945394	0.12117373	-1.5447162	0.42516055	-0.00040473928	-1.2514476	0.4386675	-0.008356064	-1.4412896	0.79932765	-0.19012066	-1.4196608	0.78650384	0.15794214	-1.3572643	0.83681879	-0.14833041	-1.3332417	0.83702554	0.093917331	-1.5235265	0.92203791	0.00038892299	-1.3699875	1.3223651	-0.20150255	-1.3786356	1.3133333	0.16023733	-1.4491494	1.3580385	-0.022806468	-1.3912623	0.99856781	-0.26905605	-1.5058451	1.0242124	0.20826666	-1.174662	0.87277513	-0.23931937	-1.4145708	0.80039351	0.23808936
4	0.012	-1.5602969	0.032535532	-0.078326817	-1.0106219	0.098492429	0.095102729	-1.6828214	0.075796026	-0.092794136	-1.1393727	0.078862973	0.10756665	-1.6729586	0.092371088	-0.010270318	-1.1272139	0.10795761	0.023154161	NaN	NaN	NaN	-1.1795552	0.038452167	0.035522261	-1.5352018	0.4217476	-0.12044925	-1.2273134	0.45788564	0.12078182	-1.5415629	0.42437904	-0.00071972733	-1.2441347	0.43720954	-0.0092746637	-1.4368876	0.79762389	-0.18962315	-1.4124091	0.78468025	0.15809439	-1.3522525	0.83511736	-0.14883241	-1.3267756	0.83540225	0.093701707	-1.5168613	0.92071995	0.0022424408	-1.3642821	1.3206543	-0.20135884	-1.372947	1.3114058	0.16055214	-1.4433835	1.3565446	-0.022628914	-1.3839361	0.99671469	-0.26907065	-1.501015	1.0225819	0.20814647	-1.1668312	0.87238404	-0.23833135	-1.4113623	0.79842317	0.23855838
5	0.016	-1.5602368	0.032475836	-0.078270829	-0.99687474	0.10196092	0.095275757	-1.6826044	0.07617753	-0.092709741	-1.1252083	0.079445999	0.10726659	-1.6747594	0.092226117	-0.0094241762	-1.1133702	0.10893882	0.022875214	NaN	NaN	NaN	-1.1643742	0.038234191	0.035192098	-1.5327298	0.42104437	-0.12049414	-1.2209323	0.45633821	0.12042597	-1.5385308	0.4235671	-0.00091308907	-1.2368441	0.43583037	-0.010127101	-1.4326525	0.7961051	-0.18895241	-1.4043986	0.7830305	0.15837606	-1.3472215	0.83336693	-0.1493645	-1.3203133	0.83374751	0.093481392	-1.510541	0.9192296	0.0033344049	-1.3585567	1.3188861	-0.20118855	-1.3672638	1.3094295	0.16089052	-1.4375616	1.3550518	-0.022377113	-1.376723	0.99481499	-0.26914892	-1.4961509	1.0208918	0.20806466	-1.1590455	0.87191301	-0.2373287	-1.4081356	0.7963992	0.23903829
6	0.02	-1.5601761	0.032416108	-0.078215528	-0.9836199	0.10546653	0.095437436	-1.682415	0.076555433	-0.09261841	-1.1114459	0.080115931	0.10690723	-1.6755832	0.092369328	-0.0089648433	-1.0998918	0.10999727	0.022537353	NaN	NaN	NaN	-1.1495179	0.038103876	0.034741088	-1.5301784	0.42029378	-0.12055455	-1.2145846	0.45483479	0.12006986	-1.5355763	0.42272894	-0.00099354962	-1.2295878	0.43451954	-0.010904314	-1.4283795	0.79465712	-0.18832768	-1.3958793	0.78150179	0.15881459	-1.3420707	0.83161172	-0.14980325	-1.3138384	0.83206558	0.093253217	-1.5044294	0.91761953	0.0040223835	-1.3528178	1.3170768	-0.20100291	-1.361587	1.3074253	0.161251	-1.4316922	1.3535574	-0.02204701	-1.3695259	0.99289	-0.2692122	-1.4912367	1.0191658	0.20800833	-1.1512996	0.87135826	-0.23631136	-1.4048615	0.79434796	0.23953385
7	0.024	-1.5601148	0.032357018	-0.078166337	-0.97078649	0.1089281	0.095519591	-1.6822387	0.076955597	-0.092536942	-1.0981167	0.080836745	0.10645801	-1.6750908	0.092868161	-0.0090085154	-1.0868288	0.11110023	0.022128662	NaN	NaN	NaN	-1.1349794	0.038068411	0.034172542	-1.5274895	0.41951986	-0.12061472	-1.2082788	0.45336719	0.11969917	-1.5325903	0.4218492	-0.0010119689	-1.2223758	0.43327418	-0.011600763	-1.4239425	0.7931857	-0.18788165	-1.3876306	0.77991578	0.15922767	-1.3367557	0.82988487	-0.15009923	-1.3073384	0.83037142	0.093011157	-1.4983408	0.91596705	0.0047339025	-1.3470686	1.315254	-0.20082187	-1.3559083	1.3054094	0.16163109	-1.4258029	1.3520405	-0.021720616	-1.3623054	0.99095633	-0.26922459	-1.4862567	1.0174248	0.20796733	-1.1435906	0.87071385	-0.2352878	-1.4015116	0.7922829	0.24005112
8	0.028	-1.5600593	0.032299395	-0.078118716	-0.95825502	0.11230178	0.095419637	-1.6820347	0.077422606	-0.092476192	-1.085238	0.081572117	0.10590668	-1.6739355	0.093523351	-0.0092790524	-1.0742122	0.11221195	0.021635046	NaN	NaN	NaN	-1.1208213	0.038125746	0.03350104	-1.5246197	0.41873111	-0.12066716	-1.2020037	0.45191946	0.11932338	-1.5294797	0.42092779	-0.0010143431	-1.2152119	0.43209516	-0.012213754	-1.4193629	0.79167287	-0.18756954	-1.3800208	0.77818493	0.15949967	-1.3313341	0.82819306	-0.15030969	-1.3008208	0.82867277	0.092746201	-1.4921848	0.91431721	0.0056484713	-1.341307	1.31343	-0.20065404	-1.3502205	1.3033923	0.16202824	-1.4199212	1.3504855	-0.021486976	-1.3550538	0.98901823	-0.26916795	-1.4812033	1.0156785	0.20794138	-1.1359251	0.86998117	-0.23426779	-1.3980709	0.79020646	0.24060048
9	0.032	-1.5600132	0.0322435	-0.07806829	-0.94597683	0.11557659	0.095078022	-1.6817613	0.077984824	-0.09243389	-1.0728099	0.08227755	0.10525086	-1.6727937	0.094153867	-0.0094980468	-1.0620406	0.11330063	0.021058302	NaN	NaN	NaN	-1.1071673	0.038251195	0.032730612	-1.5215719	0.41792071	-0.12072203	-1.1957171	0.45049368	0.11895894	-1.5261571	0.41997923	-0.0010500169	-1.2080866	0.4309764	-0.012745629	-1.4147105	0.79013748	-0.18731829	-1.3728073	0.77638338	0.15967012	-1.3258949	0.82651935	-0.15052119	-1.2943029	0.82696785	0.092452201	-1.4859681	0.91268051	0.0067242759	-1.3355301	1.311596	-0.20049201	-1.3445253	1.301379	0.16243775	-1.4140463	1.348897	-0.021340597	-1.3477771	0.98707255	-0.26904118	-1.4760825	1.0139271	0.207941	-1.1283183	0.86917028	-0.23325886	-1.394532	0.78812211	0.24118462
10	0.036	-1.5599705	0.032188551	-0.0780215	-0.93406268	0.11868697	0.094559355	-1.6814005	0.078621861	-0.09240398	-1.0608255	0.08290339	0.10449332	-1.671916	0.094715692	-0.0095730583	-1.0503001	0.11433459	0.020414808	NaN	NaN	NaN	-1.0941108	0.038410155	0.031857334	-1.5183538	0.41709275	-0.12079202	-1.1893725	0.44910673	0.11861948	-1.5226137	0.41901449	-0.0011334666	-1.2009795	0.42991136	-0.013208113	-1.4100282	0.78859232	-0.18711324	-1.3656013	0.77461981	0.15982588	-1.3204924	0.82484389	-0.15077945	-1.2877849	0.82525714	0.092131134	-1.4797256	0.91105754	0.0078728324	-1.32974	1.3097495	-0.20032089	-1.3388265	1.2993709	0.16285828	-1.4081538	1.3472914	-0.021197172	-1.3404859	0.98512624	-0.26887017	-1.4709152	1.0121708	0.20798406	-1.1207776	0.86829037	-0.23226317	-1.3909106	0.78603428	0.24179169
11	0.04	-1.5599145	0.032131703	-0.078001712	-0.92269387	0.12146932	0.093992838	-1.6809699	0.079281974	-0.092389328	-1.049288	0.083412985	0.1036515	-1.6712717	0.095238184	-0.0095428513	-1.0389881	0.11527871	0.019717265	NaN	NaN	NaN	-1.0816756	0.038573601	0.030876967	-1.514955	0.41626977	-0.1208855	-1.1829384	0.44777208	0.11831003	-1.518928	0.41804105	-0.0012342644	-1.1938698	0.42890414	-0.013623453	-1.405326	0.78703645	-0.1869593	-1.3583438	0.77290299	0.15997615	-1.3151284	0.82316205	-0.1510753	-1.2812451	0.82354573	0.091789234	-1.4734694	0.90945171	0.0090693929	-1.3239433	1.3079128	-0.20012618	-1.3331242	1.2973749	0.16329331	-1.4022246	1.3456869	-0.02098486	-1.3331878	0.9831945	-0.26867827	-1.4657226	1.0104153	0.20808653	-1.1132983	0.8673453	-0.23128096	-1.3872398	0.78394645	0.24240307
12	0.044	-1.5598271	0.032069262	-0.078034888	-0.91195287	0.12376218	0.093442464	-1.6805002	0.079939887	-0.09240174	-1.0382165	0.083788748	0.10275305	-1.6707578	0.095757588	-0.0094851192	-1.0281188	0.11609419	0.018967557	NaN	NaN	NaN	-1.0698639	0.038712588	0.02980366	-1.5113848	0.41546873	-0.12102828	-1.1763805	0.44649814	0.11802336	-1.5151416	0.4170646	-0.0013309304	-1.1867383	0.42796243	-0.014013296	-1.4005963	0.78547908	-0.18683853	-1.351331	0.77115511	0.16004413	-1.3097691	0.82148639	-0.15136773	-1.2746637	0.82184172	0.091431824	-1.4671912	0.90785994	0.010329453	-1.3181397	1.3061203	-0.1998975	-1.3274095	1.2954009	0.16374641	-1.3962552	1.3440997	-0.02067823	-1.3258845	0.98128746	-0.26845462	-1.460492	1.0086673	0.20824531	-1.1058781	0.86633857	-0.23031407	-1.3835218	0.78186706	0.2430067
13	0.048	-1.5597108	0.032002414	-0.078114806	-0.90179362	0.12550492	0.092890381	-1.6800025	0.080620644	-0.092453779	-1.0276369	0.084018531	0.10181802	-1.6702854	0.096302727	-0.0094574328	-1.017718	0.11673896	0.018166206	NaN	NaN	NaN	-1.0587027	0.038790519	0.028689758	-1.5076927	0.41468343	-0.12126098	-1.1696531	0.44529524	0.1177471	-1.511219	0.41608525	-0.0014305623	-1.1795615	0.42708616	-0.01439066	-1.3958231	0.78395067	-0.18670999	-1.3446672	0.76936495	0.16000924	-1.3043832	0.81983545	-0.15162301	-1.2680303	0.8201538	0.091061415	-1.4608639	0.90627819	0.011652604	-1.3123166	1.3043899	-0.19963134	-1.3216577	1.2934539	0.16421821	-1.3902482	1.3425392	-0.020279695	-1.3185772	0.97941394	-0.26817554	-1.4551701	1.0069297	0.20843532	-1.0985211	0.86527509	-0.22936165	-1.3797106	0.77980797	0.24360112
14	0.052	-1.5595949	0.031939585	-0.078194294	-0.8921374	0.12671935	0.092293283	-1.6794629	0.081361638	-0.092551012	-1.0175685	0.084083211	0.10084984	-1.6697675	0.096902705	-0.009481785	-1.0078147	0.11717186	0.017314949	NaN	NaN	NaN	-1.0482325	0.038763765	0.027601988	-1.5039248	0.41389526	-0.12159127	-1.162727	0.44417052	0.11747296	-1.5071356	0.41509892	-0.0015397449	-1.1723106	0.42627072	-0.014765955	-1.3909846	0.78247022	-0.18653177	-1.337958	0.7676508	0.15998095	-1.2989657	0.81821875	-0.15184162	-1.26133	0.81848619	0.090676482	-1.4544125	0.90473397	0.013007202	-1.30646	1.3027145	-0.19933412	-1.3158372	1.2915399	0.16470585	-1.38421	1.3410016	-0.019813812	-1.3112716	0.97758996	-0.26784754	-1.449708	1.0052055	0.20863604	-1.0912324	0.86415809	-0.22841944	-1.3757575	0.77777837	0.24419089
